<?xml version="1.0" encoding="UTF-8" standalone="no"?>
<svg
   xmlns:dc="http://purl.org/dc/elements/1.1/"
   xmlns:cc="http://creativecommons.org/ns#"
   xmlns:rdf="http://www.w3.org/1999/02/22-rdf-syntax-ns#"
   xmlns:svg="http://www.w3.org/2000/svg"
   xmlns="http://www.w3.org/2000/svg"
   xmlns:sodipodi="http://sodipodi.sourceforge.net/DTD/sodipodi-0.dtd"
   xmlns:inkscape="http://www.inkscape.org/namespaces/inkscape"
   version="1.1"
   id="Layer_2"
   x="0px"
   y="0px"
   viewBox="184 -94 746.09998 512.508"
   xml:space="preserve"
   sodipodi:docname="airfield-logo.svg"
   width="746.09998"
   height="512.508"
   inkscape:version="0.92.2 5c3e80d, 2017-08-06"><metadata
     id="metadata45"><rdf:RDF><cc:Work
         rdf:about=""><dc:format>image/svg+xml</dc:format><dc:type
           rdf:resource="http://purl.org/dc/dcmitype/StillImage" /><dc:title></dc:title></cc:Work></rdf:RDF></metadata><defs
     id="defs43" /><sodipodi:namedview
     pagecolor="#ffffff"
     bordercolor="#666666"
     borderopacity="1"
     objecttolerance="10"
     gridtolerance="10"
     guidetolerance="10"
     inkscape:pageopacity="0"
     inkscape:pageshadow="2"
     inkscape:window-width="1239"
     inkscape:window-height="827"
     id="namedview41"
     showgrid="false"
     inkscape:zoom="0.24081633"
     inkscape:cx="490"
     inkscape:cy="490"
     inkscape:window-x="0"
     inkscape:window-y="0"
     inkscape:window-maximized="0"
     inkscape:current-layer="Layer_2" />
     <style>
     	path {
        fill: #fbc02d;
     	}
     </style>
     <g
     id="g14"
     transform="translate(-118,-222.70021)"><g
       id="g12"><path
         d="m 676,129 c 0.4,0.8 0.7,1.8 1.4,2.5 8,8.4 16.1,16.8 24.1,25.2 12.6,13.2 25.2,26.5 37.7,39.7 9.9,10.5 19.7,21.1 29.6,31.6 13.4,14.1 26.8,28.1 40.2,42.2 11.2,11.8 22.3,23.7 33.5,35.5 12.2,12.9 24.5,25.8 36.7,38.7 10.4,11 20.7,22 31,33 12.9,13.6 25.9,27.2 38.8,40.8 11,11.6 21.8,23.2 32.8,34.8 12.1,12.8 24.2,25.5 36.3,38.3 8.7,9.3 17.4,18.7 26.1,28 1.1,1.1 2.6,1.9 3.9,2.8 0,0.3 0,0.7 0,1 -14.3,-0.1 -28.7,-0.8 -42.9,-0.2 -6.8,0.3 -10.5,-2.9 -14.2,-7.3 -1.5,-1.7 -2.9,-3.6 -4.5,-5.3 -12.6,-13 -25.3,-25.9 -37.9,-39 C 934.3,456.5 920.1,441.5 905.9,426.6 891.4,411.5 877,396.3 862.5,381.2 848.3,366.3 834,351.4 819.8,336.5 805.3,321.4 790.9,306.2 776.4,291.1 762.3,276.3 748.2,261.5 734.1,246.8 719.5,231.5 704.9,216.3 690.4,201 c -4.5,-4.7 -8.8,-9.6 -13.2,-14.5 -0.4,0.2 -0.9,0.4 -1.3,0.6 0,9.2 0,18.5 0.1,27.7 0,0.8 0.9,1.7 1.6,2.4 4.8,5.3 9.6,10.5 14.6,15.7 16.3,17 32.7,34 49,51.1 12.6,13.2 25.2,26.5 37.7,39.7 13.4,14.1 26.8,28.1 40.2,42.2 12.7,13.4 25.4,26.7 38.1,40.1 13.3,14 26.6,27.9 39.9,41.9 12.7,13.4 25.4,26.7 38.1,40.1 10.6,11.2 21.1,22.5 32.3,34.5 -3.6,0 -6.5,0 -9.4,0 -11.7,0 -23.3,0.1 -35,-0.1 -2.2,0 -5,-1 -6.5,-2.5 -15,-15.3 -29.8,-30.8 -44.5,-46.4 -9.7,-10.2 -19.2,-20.6 -28.9,-30.9 -13.2,-14 -26.6,-27.9 -39.8,-41.9 -11,-11.6 -21.9,-23.2 -32.8,-34.8 -12.1,-12.8 -24.2,-25.5 -36.3,-38.3 -10.7,-11.3 -21.4,-22.7 -32.1,-34.1 -7.6,-8.1 -15.1,-16.3 -22.5,-24.6 -1.2,-1.3 -1.9,-3.2 -2.2,-3.7 -6,5.3 -10.5,9.6 -15.4,13.5 -1.5,1.3 -3.7,2.6 -5.5,2.6 -41.5,0.1 -83,0.1 -125.2,0.1 4.8,-5.3 9,-10.2 13.4,-14.9 4.6,-5 9.2,-10 14.2,-14.7 1.2,-1.1 3.6,-1.5 5.4,-1.5 35.2,-0.1 70.3,-0.1 105.5,-0.1 2,0 4,0 6.4,0 0,-11.2 0,-22.1 0,-33.5 -27.5,0 -55,0 -82.5,0 -0.2,-0.9 -0.4,-1.3 -0.3,-1.5 8.7,-9.2 17.3,-18.4 26.1,-27.4 1.2,-1.2 3.6,-1.6 5.4,-1.6 15.2,-0.1 30.3,-0.1 45.5,-0.1 1.8,0 3.6,0 5.8,0 0,-11.3 0,-22.2 0,-33.6 -7.5,0 -14.9,0 -23.5,0 6.6,-7 12.4,-13.1 18,-19.2 1.3,-1.4 2.3,-3 3.5,-4.6 0.4,0.3 1,0.3 1.7,0.3 z"
         id="path2"
         inkscape:connector-curvature="0" /><path
         d="m 302,523 c 3.7,-3.6 7.3,-7.5 11.2,-10.9 1.6,-1.4 3.9,-2.6 6,-2.6 40.8,-0.2 81.6,-0.1 122.3,-0.1 0.6,0 1.2,0.1 2.3,0.2 -3.8,4.4 -7.2,8.6 -11.1,12.3 -1.3,1.2 -3.9,1.6 -5.9,1.6 -39.6,0.1 -79.2,0.1 -118.8,0.1 -2,0 -4,0.2 -5.9,0.4 -0.1,-0.3 -0.1,-0.7 -0.1,-1 z"
         id="path4"
         inkscape:connector-curvature="0" /><path
         d="m 470.2,346 c 4.2,-4.6 8.4,-9 12.5,-13.4 4.5,-4.9 8.9,-9.8 13.6,-14.5 1.3,-1.3 3.3,-2.5 5,-2.5 41.6,-0.1 83.3,-0.1 125.6,-0.1 -2.5,3 -4.4,5.8 -6.7,8.2 -6.3,6.8 -12.7,13.6 -19.2,20.2 -1.4,1.4 -3.6,2.7 -5.4,2.7 -41.3,0.1 -82.6,0.1 -123.9,0.1 -0.4,-0.1 -0.7,-0.4 -1.5,-0.7 z"
         id="path6"
         inkscape:connector-curvature="0" /><path
         d="m 505.2,444.7 c -3,3.3 -5.4,6.1 -7.9,8.8 -6.1,6.5 -12.2,13.1 -18.5,19.5 -1.3,1.3 -3.3,2.5 -5,2.5 -41.6,0.1 -83.3,0.1 -125.9,0.1 5.3,-5.7 10.1,-10.9 14.8,-16 3.7,-4 7.2,-8.2 11.2,-12 1.6,-1.5 4.1,-3 6.3,-3.1 40.8,-0.2 81.6,-0.1 122.4,-0.1 0.5,0 1.1,0.1 2.6,0.3 z"
         id="path8"
         inkscape:connector-curvature="0" /><path
         d="m 566,380.8 c -9.7,10.1 -19,19.8 -28.5,29.5 -0.9,0.9 -2.7,1.2 -4.1,1.2 -41.1,0.1 -82.2,0.1 -123.3,0 -0.5,0 -0.9,-0.2 -1.5,-0.3 0.3,-0.5 0.4,-1 0.7,-1.3 8.6,-9 17.2,-18 25.9,-26.8 1.4,-1.4 3.6,-2.6 5.5,-2.6 41.1,-0.1 82.2,-0.1 123.3,-0.1 0.4,0 0.9,0.2 2,0.4 z"
         id="path10"
         inkscape:connector-curvature="0" /></g></g><g
     id="g38"
     transform="translate(-118,-222.70021)"><g
       id="g36"><path
         d="m 570.3,614.1 c 9.5,9.1 18.1,17.3 26.7,25.5 -0.2,0.4 -0.4,0.7 -0.7,1.1 -6.1,0 -12.2,0.2 -18.3,-0.1 -1.5,-0.1 -3.2,-1.6 -4.4,-2.8 -5.6,-5.9 -11.2,-11.9 -16.5,-18.1 -2.5,-2.9 -5.1,-4.3 -9,-4.1 -8,0.3 -16,-0.1 -24,0.2 -3.7,0.1 -5,-1 -4.9,-4.8 0.3,-10 -1,-8.4 8.5,-8.5 9.8,-0.1 19.7,0 29.5,0 11.3,0 17.3,-6.1 17.7,-17.7 0.4,-11.3 -5.5,-18.5 -16.7,-18.8 -15.8,-0.4 -31.7,-0.1 -47.5,-0.2 -4.1,0 -3.9,2.7 -3.9,5.4 0,19.3 0,38.7 0,58 0,2.7 0.4,5.4 -0.2,8 -0.3,1.4 -2.1,3.3 -3.4,3.5 -11,1.2 -11,1.1 -11,-9.8 0,-24.7 0.1,-49.3 -0.1,-74 0,-4.5 1.3,-5.6 5.7,-5.6 19.8,0.2 39.7,0.4 59.5,0 23.1,-0.5 34.9,17.3 31.8,38.9 -1.5,10.8 -7.3,18.5 -18.8,23.9 z"
         id="path16"
         inkscape:connector-curvature="0" /><path
         d="m 912.3,596 c 0,-13.3 0.1,-26.6 -0.1,-40 -0.1,-3.7 1.1,-4.9 4.8,-4.9 17.2,0.2 34.3,-0.1 51.5,0.1 20.4,0.3 37.9,17.6 39.3,38 1.1,16.8 -2.9,31.4 -16.4,42.3 -7.3,5.9 -15.8,9 -25.3,9 -16.3,0 -32.6,-0.1 -49,0.1 -3.7,0 -4.9,-1 -4.9,-4.8 0.2,-13.1 0.1,-26.5 0.1,-39.8 z m 14.4,-0.1 c 0,8.7 0,17.3 0,26 0,2.4 0.3,4.4 3.4,4.4 13.1,-0.3 26.4,0.2 39.4,-1 13.7,-1.3 23.5,-13.9 23.7,-28.4 0.3,-15.2 -8.7,-28.3 -22.5,-29.8 -13.5,-1.5 -27.2,-0.9 -40.9,-1.1 -3.2,-0.1 -3.2,2.3 -3.2,4.6 0.1,8.3 0.1,16.8 0.1,25.3 z"
         id="path18"
         inkscape:connector-curvature="0" /><path
         d="m 329.7,640.7 c 8.4,-14 16.1,-26.9 23.8,-39.7 8.9,-14.8 18.2,-29.4 26.6,-44.6 4.7,-8.5 12.7,-7.9 17.1,-0.3 15.6,26.9 31.9,53.4 48,80 0.7,1.1 1.2,2.3 2.3,4.4 -6,0 -11.4,0.2 -16.7,-0.1 -1.1,-0.1 -2.2,-1.8 -3,-3 -3.2,-5.1 -6.3,-10.2 -9.2,-15.4 -1.6,-3.1 -3.8,-4.2 -7.2,-4.1 -10.3,0.2 -20.6,0.1 -31,0.1 -1.8,0 -3.6,0 -6.6,0 2.4,-4.1 4,-7.3 6.1,-10.2 0.8,-1 2.9,-1.4 4.4,-1.4 6,-0.2 12,0 18,-0.1 1.8,0 3.5,-0.2 6.6,-0.4 -7.1,-11.9 -13.6,-22.9 -20.6,-34.7 -1.5,2.1 -2.5,3.4 -3.3,4.7 -11.7,19.8 -23.5,39.4 -35,59.3 -2.4,4.2 -5,6.1 -9.8,5.5 -3,-0.3 -6.1,0 -10.5,0 z"
         id="path20"
         inkscape:connector-curvature="0" /><path
         d="m 729.1,595.8 c 0,-13.2 0.1,-26.3 -0.1,-39.5 0,-3.8 1,-5.2 5.1,-5.2 23.3,0.2 46.6,0.2 69.9,0 4.2,0 5,1.6 5,5.3 -0.2,10.9 0.7,9.2 -8.9,9.2 -16.8,0.1 -33.6,0.1 -50.4,-0.1 -4.4,0 -6.2,0.9 -6.1,5.8 0.3,16.5 0.2,33 0,49.4 0,4.1 1.2,5.5 5.4,5.4 18.1,-0.2 36.3,0.1 54.4,-0.2 4.5,-0.1 6.1,1.4 5.6,5.7 -0.2,1.5 -0.1,3 0,4.5 0.2,3.1 -0.9,4.4 -4.3,4.4 -23.8,-0.1 -47.6,-0.1 -71.4,0 -3.9,0 -4.2,-2 -4.2,-5 0,-13 0,-26.4 0,-39.7 z"
         id="path22"
         inkscape:connector-curvature="0" /><path
         d="m 607.4,595.5 c 0,-13.2 0.1,-26.3 -0.1,-39.5 -0.1,-3.8 1.2,-4.8 4.9,-4.8 22.3,0.1 44.7,0.1 67,0 3.5,0 4.7,1 4.6,4.6 -0.3,11.8 1.4,9.8 -9.6,9.9 -15.5,0.1 -31,0.2 -46.5,-0.1 -4.4,-0.1 -5.8,1.5 -5.7,5.8 0.2,21 -0.1,42 0.2,63 0.1,5 -1.3,6.7 -6.4,6.4 -9.5,-0.5 -8.2,0.8 -8.3,-8.4 -0.2,-12.2 -0.1,-24.6 -0.1,-36.9 z"
         id="path24"
         inkscape:connector-curvature="0" /><path
         d="m 861.5,640.7 c -10.8,0 -21.6,-0.1 -32.5,0.1 -3.5,0.1 -5.1,-0.8 -5.1,-4.7 0.1,-26.8 0.1,-53.6 0,-80.4 0,-3.6 1.4,-4.6 4.8,-4.5 11.9,0.3 9.8,-1.3 9.8,9.7 0.1,19.6 0.2,39.3 -0.1,58.9 -0.1,4.9 1.2,6.7 6.4,6.6 16.5,-0.3 33,0 49.4,-0.2 4,0 5.6,0.9 5.5,5.2 -0.4,10.9 1.2,9.2 -9.3,9.3 -9.5,0.1 -19.2,0 -28.9,0 z"
         id="path26"
         inkscape:connector-curvature="0" /><path
         d="m 696.4,595.7 c 0,-13.3 0.1,-26.6 -0.1,-40 0,-3.5 1.1,-4.6 4.6,-4.6 13.1,0.3 10.6,-1.5 10.7,10.3 0.1,24.6 0,49.3 0.1,73.9 0,4.2 -1.2,5.4 -5.4,5.3 -10,-0.2 -10,0 -10,-10.1 0.1,-11.4 0.1,-23.1 0.1,-34.8 z"
         id="path28"
         inkscape:connector-curvature="0" /><path
         d="m 474.6,596 c 0,13.3 -0.1,26.6 0.1,40 0.1,3.7 -1,5 -4.8,4.9 -11.3,-0.3 -9.8,1.3 -9.8,-9.8 -0.1,-24.5 0.1,-48.9 -0.1,-73.4 -0.1,-5.1 1.4,-6.7 6.5,-6.4 9.5,0.5 8.2,-0.8 8.2,8.4 0,12 -0.1,24.1 -0.1,36.3 z"
         id="path30"
         inkscape:connector-curvature="0" /><path
         d="m 780.8,601.6 c -6.8,0 -13.6,-0.1 -20.4,0.1 -3,0.1 -4.7,-1.1 -3.9,-4 0.8,-2.8 -2.9,-8.1 3,-8.2 14.3,-0.4 28.6,-0.2 42.9,0 1.1,0 2.7,1.8 3.1,3.1 0.5,1.6 0,3.6 0.2,5.4 0.2,2.9 -1.2,3.7 -3.9,3.6 -7,-0.1 -14,0 -21,0 z"
         id="path32"
         inkscape:connector-curvature="0" /><path
         d="m 657,590.4 c 6.3,0 12.6,0.1 18.9,0 2.8,-0.1 3.7,0.9 3.9,3.7 0.4,9.6 0.5,9.6 -9,9.6 -10.3,0 -20.6,-0.1 -30.9,0.1 -3.6,0.1 -5.3,-1 -4.9,-4.8 0.1,-1.3 0.1,-2.7 0,-4 -0.3,-3.4 0.9,-4.8 4.5,-4.6 5.9,0.1 11.7,0 17.5,0 z"
         id="path34"
         inkscape:connector-curvature="0" /></g></g></svg>